<svg xmlns="http://www.w3.org/2000/svg" id="Layer_1" data-name="Layer 1" viewBox="90 0 380 90">
    <title>Blue-Medical-logo-inverted</title>
    <path
        d="M211.82,33.32h7.93l5.55,14.9,2,5.8h.2l2-5.8,5.39-14.9h7.93V66.48h-7V54.32c0-3.25.61-8.08,1-11.29h-.2l-2.7,7.68L228.7,63.58h-3l-5.08-12.87L218,43h-.2c.36,3.21,1,8,1,11.29V66.48h-6.92Z"
        style="fill:#fff"></path>
    <path
        d="M257.59,40c7.17,0,10.73,5.24,10.73,12.1a15.07,15.07,0,0,1-.3,3.16H252.91c.66,3.81,3.21,5.49,6.56,5.49a10.18,10.18,0,0,0,5.45-1.68l2.49,4.53a16.52,16.52,0,0,1-9,2.85c-7.22,0-12.77-4.88-12.77-13.23,0-8.18,5.85-13.22,11.9-13.22M262,50.66c0-2.9-1.22-4.93-4.23-4.93-2.34,0-4.37,1.57-4.88,4.93Z"
        style="fill:#fff"></path>
    <path
        d="M122.31,33.32h11.34c6.92,0,12.26,1.88,12.26,8.24a7.28,7.28,0,0,1-5.6,7.17v.2c4.73.87,7.23,3.36,7.23,7.78,0,6.77-5.7,9.77-12.92,9.77H122.31Zm11,13.37c3.67,0,5.3-1.57,5.3-4.07s-1.73-3.5-5.19-3.5h-3.56v7.57Zm.72,14c4.07,0,6.2-1.53,6.2-4.53S138.13,52,134,52h-4.17v8.7Z"
        style="fill:#fff"></path>
    <path
        d="M160.81,41.2h7.48V55.9c0,3.61,1,4.78,3.15,4.78,1.88,0,3-.82,4.47-2.8V41.2h7.48V66.42h-6.1l-.56-3.51h-.15c-2.14,2.55-4.48,4.12-7.94,4.12-5.49,0-7.83-3.86-7.83-10.17Z"
        style="fill:#fff"></path>
    <path
        d="M198.19,40c7.17,0,10.73,5.24,10.73,12.1a15.07,15.07,0,0,1-.3,3.16H193.51c.66,3.81,3.2,5.49,6.56,5.49a10.21,10.21,0,0,0,5.45-1.68L208,63.63a16.52,16.52,0,0,1-8.95,2.85c-7.23,0-12.77-4.88-12.77-13.23,0-8.18,5.85-13.22,11.9-13.22m4.37,10.63c0-2.9-1.22-4.93-4.22-4.93-2.34,0-4.37,1.57-4.88,4.93Z"
        style="fill:#fff"></path>
    <path
        d="M280.66,40.59a8.26,8.26,0,0,1,6.2,2.65l-.31-3.87V30.78H294V66.43h-6.1l-.51-2.49h-.21A10,10,0,0,1,280.5,67c-6.25,0-10.32-5-10.32-13.22s5.13-13.23,10.48-13.23m1.77,20.34a4.72,4.72,0,0,0,4.12-2.28V48.32a6,6,0,0,0-4.17-1.63c-2.39,0-4.52,2.24-4.52,7,0,5,1.68,7.22,4.57,7.22"
        style="fill:#fff"></path>
    <path
        d="M296.37,33.62c0-2.29,1.83-3.86,4.32-3.86S305,31.33,305,33.62s-1.78,3.92-4.33,3.92-4.32-1.63-4.32-3.92m.61,7.63h7.48V66.48H297Z"
        style="fill:#fff"></path>
    <path
        d="M320.48,40a10.18,10.18,0,0,1,7.37,2.9l-3.4,4.63a5.41,5.41,0,0,0-3.52-1.48c-3.61,0-5.9,2.8-5.9,7.17s2.4,7.17,5.65,7.17a7.26,7.26,0,0,0,4.53-1.83l3,4.73a13.08,13.08,0,0,1-8.39,3.16c-7,0-12.46-4.83-12.46-13.23S313.51,40,320.48,40"
        style="fill:#fff"></path>
    <path
        d="M343.73,50.2c-.15-2.23-1.27-3.66-4-3.66-2.13,0-4.27.87-6.71,2.29l-2.64-4.93a20.85,20.85,0,0,1,10.78-3.31c6.46,0,10,3.66,10,11.39V66.43H345.1l-.56-2.6h-.15A11,11,0,0,1,337,67a7.25,7.25,0,0,1-7.48-7.63c0-5.29,4.22-8.19,14.19-9.21m-4.17,11c1.73,0,2.85-.81,4.17-2.14V54.68c-5.34.71-7.07,2.24-7.07,4.17,0,1.63,1.12,2.39,2.9,2.39"
        style="fill:#fff"></path>
    <polygon
        points="150.43 33.32 150.43 33.33 150.43 40.76 150.43 58.76 150.43 66.48 157.91 66.48 157.91 66.47 157.91 59.04 157.91 41.04 157.91 33.32 150.43 33.32"
        style="fill:#fff"></polygon>
    <polygon
        points="354.11 33.37 354.11 33.38 354.11 40.8 354.11 58.77 354.11 66.48 361.58 66.48 361.58 66.47 361.58 59.05 361.58 41.08 361.58 33.37 354.11 33.37"
        style="fill:#fff"></polygon>
    <path
        d="M67.63,7.76A16.61,16.61,0,0,0,51.07,24.32v7.51H43.56a16.57,16.57,0,1,0,0,33.13h17V55.41h-17a7,7,0,1,1,0-14h17v-17a7,7,0,0,1,14,0v2.71H84.2V24.32A16.61,16.61,0,0,0,67.63,7.76"
        style="fill:#fff"></path>
    <path
        d="M91.71,31.83H89.26v0H74.65v9.53h17a7,7,0,0,1,0,14h-17v17a7,7,0,0,1-14,0V69.74H51.07v2.73a16.57,16.57,0,1,0,33.13,0V65h7.51a16.57,16.57,0,0,0,0-33.13"
        style="fill:#fff"></path>
</svg>